# xmcd
#
# Track frame offsets:
#	150
#	11690
#	22365
#	33900
#	43995
#	54345
#	71665
#	83667
#	96112
#	104667
#	117482
#	129377
#	140147
#	150650
#	162240
#	174710
#	184665
#	195727
#	209070
#	221437
#	232392
#	242860
#	254137
#	264867
#
# Disc length: 3577 seconds
#
# Revision: 1
# Processed by: cddbd v1.4PL0 Copyright (c) Steve Scherf et al.
# Submitted via: audiograbber 1.80
#
DISCID=720df718
DTITLE=johnny horton - the early years disc 1
DYEAR=1900
DGENRE=
TTITLE0=smokey joe's barbecue 1951
TTITLE1=devilish love light 1951
TTITLE2=shotgun boogie 1996
TTITLE3=in my home in shelby county 1951
TTITLE4=coal smoke, valve oil and steam 1951
TTITLE5=bob sullivan stomp (piano instrumental) 1998
TTITLE6=plaid and calico 1951
TTITLE7=done rovin' 1951
TTITLE8=candy jones 1951
TTITLE9=mean, mean son of a gun 1951
TTITLE10=shadows on the old bayou 1951
TTITLE11=talk gobbler talk (old gobbler, the hound dog) 1951
TTITLE12=go and wash your dirty feet (barefoot boy blues) 1951
TTITLE13=birds and butterflies 1951
TTITLE14=happy millionarie 1951
TTITLE15=it's a long rocky road 1951
TTITLE16=on the banks of the beautiful nile 1951
TTITLE17=stompin' at the kwkh (piano instrumental) 1998
TTITLE18=words 1951
TTITLE19=rhythm in my baby's walk 1952
TTITLE20=bawlin' baby (& hillbilly barton) 1952
TTITLE21=somebody's rockin' my broken heart (& hillbilly barton) 1952
TTITLE22=betty lorraine (betty lou) 1952
TTITLE23=devilish love light (excerpt) 1998
EXTD=
EXTT0=
EXTT1=
EXTT2=
EXTT3=
EXTT4=
EXTT5=
EXTT6=
EXTT7=
EXTT8=
EXTT9=
EXTT10=
EXTT11=
EXTT12=
EXTT13=
EXTT14=
EXTT15=
EXTT16=
EXTT17=
EXTT18=
EXTT19=
EXTT20=
EXTT21=
EXTT22=
EXTT23=
PLAYORDER=
